<svg data-v-29081953="" xmlns="http://www.w3.org/2000/svg" viewBox="0 0 300 300"><!----><defs data-v-29081953=""><!----></defs><rect data-v-29081953="" fill="transparent" x="0" y="0" width="300px" height="300px" class="logo-background-square"></rect><defs data-v-29081953=""><!----></defs><g data-v-29081953="" id="20e554d2-4999-488a-92e8-97732e2d5e19" fill="#000000" transform="matrix(1.734461512679589,0,0,1.734461512679589,65.56686438726528,128.91679147569891)"><path d="M0.85 10.50L0.85-0.42L7.35-0.42L7.35 1.22L2.73 1.22L2.73 4.12L6.65 4.12L6.65 5.74L2.73 5.74L2.73 8.86L7.35 8.86L7.35 10.50L0.85 10.50ZM13.17 10.39L13.17 10.39L13.17 9.35L13.17 9.35Q12.46 10.21 11.20 10.21L11.20 10.21L11.20 10.21Q9.77 10.21 9.09 9.28L9.09 9.28L9.09 9.28Q8.41 8.36 8.41 6.73L8.41 6.73L8.41 6.37L8.41 6.37Q8.41 4.80 9.10 3.85L9.10 3.85L9.10 3.85Q9.79 2.90 11.20 2.90L11.20 2.90L11.20 2.90Q12.64 2.90 13.34 3.99L13.34 3.99L13.50 3.08L15.11 3.08L14.99 5.18L14.99 10.42L14.99 10.42Q14.99 13.48 11.73 13.48L11.73 13.48L11.73 13.48Q10.05 13.48 9.30 12.74L9.30 12.74L9.30 12.74Q8.55 12.00 8.55 10.77L8.55 10.77L8.55 10.50L10.28 10.50L10.28 10.50Q10.28 11.23 10.60 11.61L10.60 11.61L10.60 11.61Q10.92 11.98 11.69 11.98L11.69 11.98L11.69 11.98Q12.47 11.98 12.82 11.61L12.82 11.61L12.82 11.61Q13.17 11.23 13.17 10.39ZM13.17 7.78L13.17 7.78L13.17 5.33L13.17 5.33Q12.63 4.48 11.70 4.48L11.70 4.48L11.70 4.48Q10.99 4.48 10.61 4.99L10.61 4.99L10.61 4.99Q10.23 5.50 10.23 6.37L10.23 6.37L10.23 6.73L10.23 6.73Q10.23 8.62 11.70 8.62L11.70 8.62L11.70 8.62Q12.61 8.62 13.17 7.78ZM21.06 10.39L21.06 10.39L21.06 9.35L21.06 9.35Q20.34 10.21 19.08 10.21L19.08 10.21L19.08 10.21Q17.65 10.21 16.98 9.28L16.98 9.28L16.98 9.28Q16.30 8.36 16.30 6.73L16.30 6.73L16.30 6.37L16.30 6.37Q16.30 4.80 16.98 3.85L16.98 3.85L16.98 3.85Q17.67 2.90 19.08 2.90L19.08 2.90L19.08 2.90Q20.52 2.90 21.22 3.99L21.22 3.99L21.38 3.08L22.99 3.08L22.88 5.18L22.88 10.42L22.88 10.42Q22.88 13.48 19.61 13.48L19.61 13.48L19.61 13.48Q17.93 13.48 17.19 12.74L17.19 12.74L17.19 12.74Q16.44 12.00 16.44 10.77L16.44 10.77L16.44 10.50L18.16 10.50L18.16 10.50Q18.16 11.23 18.48 11.61L18.48 11.61L18.48 11.61Q18.80 11.98 19.57 11.98L19.57 11.98L19.57 11.98Q20.36 11.98 20.71 11.61L20.71 11.61L20.71 11.61Q21.06 11.23 21.06 10.39ZM21.06 7.78L21.06 7.78L21.06 5.33L21.06 5.33Q20.51 4.48 19.59 4.48L19.59 4.48L19.59 4.48Q18.87 4.48 18.49 4.99L18.49 4.99L18.49 4.99Q18.12 5.50 18.12 6.37L18.12 6.37L18.12 6.73L18.12 6.73Q18.12 8.62 19.59 8.62L19.59 8.62L19.59 8.62Q20.50 8.62 21.06 7.78ZM27.94 6.43L26.40 6.43L26.40 10.50L24.53 10.50L24.53-0.42L27.94-0.42L27.94-0.42Q31.60-0.42 31.60 2.86L31.60 2.86L31.60 3.14L31.60 3.14Q31.60 6.43 27.94 6.43L27.94 6.43ZM26.40 1.22L26.40 4.79L28.01 4.79L28.01 4.79Q29.69 4.79 29.69 3.08L29.69 3.08L29.69 2.93L29.69 2.93Q29.69 1.22 28.01 1.22L28.01 1.22L26.40 1.22ZM34.71 10.50L32.89 10.50L32.89 3.08L34.71 3.08L34.71 10.50ZM32.80-0.18L34.79-0.18L34.79 1.79L32.80 1.79L32.80-0.18ZM39.27-0.42L41.15-0.42L41.15 10.50L39.27 10.50L39.27-0.42ZM49.42 1.22L46.82 1.22L46.82 10.50L44.94 10.50L44.94 1.22L42.34 1.22L42.34-0.42L49.42-0.42L49.42 1.22ZM56.55 5.74L56.55 5.74L56.55 5.74Q54.75 5.50 53.93 4.77L53.93 4.77L53.93 4.77Q53.10 4.05 53.10 2.70L53.10 2.70L53.10 2.56L53.10 2.56Q53.10 1.11 54.09 0.25L54.09 0.25L54.09 0.25Q55.08-0.60 56.84-0.60L56.84-0.60L56.84-0.60Q58.76-0.60 59.66 0.31L59.66 0.31L59.66 0.31Q60.56 1.22 60.56 3.08L60.56 3.08L60.56 3.40L58.69 3.40L58.69 3.40Q58.69 2.17 58.25 1.60L58.25 1.60L58.25 1.60Q57.82 1.04 56.85 1.04L56.85 1.04L56.73 1.04L56.73 1.04Q55.96 1.04 55.49 1.43L55.49 1.43L55.49 1.43Q55.02 1.82 55.02 2.46L55.02 2.46L55.02 2.55L55.02 2.55Q55.02 3.26 55.47 3.64L55.47 3.64L55.47 3.64Q55.92 4.02 57.15 4.19L57.15 4.19L57.15 4.19Q58.97 4.44 59.82 5.15L59.82 5.15L59.82 5.15Q60.66 5.87 60.66 7.28L60.66 7.28L60.66 7.43L60.66 7.43Q60.66 8.97 59.66 9.83L59.66 9.83L59.66 9.83Q58.66 10.68 56.84 10.68L56.84 10.68L56.84 10.68Q53.00 10.68 53.00 6.96L53.00 6.96L53.00 6.82L54.88 6.82L54.88 6.82Q54.88 9.04 56.77 9.04L56.77 9.04L56.90 9.04L56.90 9.04Q57.76 9.04 58.25 8.62L58.25 8.62L58.25 8.62Q58.74 8.20 58.74 7.50L58.74 7.50L58.74 7.42L58.74 7.42Q58.74 6.69 58.25 6.30L58.25 6.30L58.25 6.30Q57.76 5.91 56.55 5.74ZM67.56 9.68L67.56 9.68L67.56 9.68Q66.72 10.68 65.04 10.68L65.04 10.68L65.04 10.68Q63.36 10.68 62.52 9.68L62.52 9.68L62.52 9.68Q61.68 8.68 61.68 7.01L61.68 7.01L61.68 6.57L61.68 6.57Q61.68 4.89 62.52 3.89L62.52 3.89L62.52 3.89Q63.36 2.90 65.04 2.90L65.04 2.90L65.04 2.90Q66.72 2.90 67.56 3.89L67.56 3.89L67.56 3.89Q68.40 4.89 68.40 6.57L68.40 6.57L68.40 7.01L68.40 7.01Q68.40 8.68 67.56 9.68ZM63.50 7.01L63.50 7.01Q63.50 9.09 65.04 9.09L65.04 9.09L65.04 9.09Q66.58 9.09 66.58 7.01L66.58 7.01L66.58 6.57L66.58 6.57Q66.58 4.48 65.04 4.48L65.04 4.48L65.04 4.48Q63.50 4.48 63.50 6.57L63.50 6.57L63.50 7.01ZM71.58 10.50L69.76 10.50L69.76-0.70L71.58-0.70L71.58 10.50ZM73.15 8.15L73.15 3.08L74.96 3.08L74.96 7.87L74.96 7.87Q74.96 9.09 76.15 9.09L76.15 9.09L76.15 9.09Q77.15 9.09 77.69 8.25L77.69 8.25L77.69 3.08L79.51 3.08L79.51 8.40L79.62 10.50L78.01 10.50L77.84 9.52L77.84 9.52Q77.04 10.68 75.43 10.68L75.43 10.68L75.43 10.68Q74.28 10.68 73.72 9.97L73.72 9.97L73.72 9.97Q73.15 9.25 73.15 8.15L73.15 8.15ZM83.58 0.98L83.58 3.08L85.64 3.08L85.64 4.68L83.58 4.68L83.58 7.88L83.58 7.88Q83.58 8.58 83.87 8.83L83.87 8.83L83.87 8.83Q84.17 9.09 84.78 9.09L84.78 9.09L84.78 9.09Q85.30 9.09 85.50 8.99L85.50 8.99L85.50 10.50L85.50 10.50Q85.13 10.68 84.35 10.68L84.35 10.68L84.35 10.68Q81.76 10.68 81.76 8.08L81.76 8.08L81.76 4.68L80.63 4.68L80.63 3.08L81.76 3.08L81.76 0.98L83.58 0.98ZM88.86 10.50L87.04 10.50L87.04 3.08L88.86 3.08L88.86 10.50ZM86.95-0.18L88.94-0.18L88.94 1.79L86.95 1.79L86.95-0.18ZM96.08 9.68L96.08 9.68L96.08 9.68Q95.24 10.68 93.56 10.68L93.56 10.68L93.56 10.68Q91.88 10.68 91.04 9.68L91.04 9.68L91.04 9.68Q90.20 8.68 90.20 7.01L90.20 7.01L90.20 6.57L90.20 6.57Q90.20 4.89 91.04 3.89L91.04 3.89L91.04 3.89Q91.88 2.90 93.56 2.90L93.56 2.90L93.56 2.90Q95.24 2.90 96.08 3.89L96.08 3.89L96.08 3.89Q96.92 4.89 96.92 6.57L96.92 6.57L96.92 7.01L96.92 7.01Q96.92 8.68 96.08 9.68ZM92.02 7.01L92.02 7.01Q92.02 9.09 93.56 9.09L93.56 9.09L93.56 9.09Q95.10 9.09 95.10 7.01L95.10 7.01L95.10 6.57L95.10 6.57Q95.10 4.48 93.56 4.48L93.56 4.48L93.56 4.48Q92.02 4.48 92.02 6.57L92.02 6.57L92.02 7.01ZM104.59 5.42L104.59 10.50L102.79 10.50L102.79 5.71L102.79 5.71Q102.79 5.15 102.49 4.82L102.49 4.82L102.49 4.82Q102.20 4.48 101.61 4.48L101.61 4.48L101.61 4.48Q100.59 4.48 100.07 5.33L100.07 5.33L100.07 10.50L98.25 10.50L98.25 5.18L98.13 3.08L99.74 3.08L99.90 4.06L99.90 4.06Q100.70 2.90 102.31 2.90L102.31 2.90L102.31 2.90Q103.46 2.90 104.03 3.61L104.03 3.61L104.03 3.61Q104.59 4.33 104.59 5.42L104.59 5.42ZM109.00 9.27L109.00 9.27L109.00 9.27Q109.63 9.27 109.96 9.02L109.96 9.02L109.96 9.02Q110.28 8.76 110.28 8.34L110.28 8.34L110.28 8.34Q110.28 7.87 109.97 7.67L109.97 7.67L109.97 7.67Q109.66 7.46 108.86 7.39L108.86 7.39L108.86 7.39Q107.32 7.27 106.67 6.80L106.67 6.80L106.67 6.80Q106.01 6.33 106.01 5.35L106.01 5.35L106.01 5.24L106.01 5.24Q106.01 4.09 106.83 3.49L106.83 3.49L106.83 3.49Q107.65 2.90 109.00 2.90L109.00 2.90L109.00 2.90Q112.01 2.90 112.01 5.43L112.01 5.43L112.01 5.50L110.24 5.50L110.24 5.50Q110.24 4.31 109.00 4.31L109.00 4.31L109.00 4.31Q108.43 4.31 108.12 4.55L108.12 4.55L108.12 4.55Q107.80 4.79 107.80 5.19L107.80 5.19L107.80 5.19Q107.80 5.63 108.09 5.83L108.09 5.83L108.09 5.83Q108.37 6.03 109.16 6.09L109.16 6.09L109.16 6.09Q110.67 6.22 111.38 6.66L111.38 6.66L111.38 6.66Q112.10 7.11 112.10 8.18L112.10 8.18L112.10 8.27L112.10 8.27Q112.10 9.39 111.31 10.04L111.31 10.04L111.31 10.04Q110.52 10.68 109.00 10.68L109.00 10.68L109.00 10.68Q107.48 10.68 106.69 10.00L106.69 10.00L106.69 10.00Q105.91 9.31 105.91 8.23L105.91 8.23L105.91 8.18L107.72 8.18L107.72 8.18Q107.72 9.27 109.00 9.27Z"></path></g><defs data-v-29081953=""><linearGradient data-v-29081953="" gradientTransform="rotate(25)" id="65d7e5ce-c4fb-4a26-97d1-aa8e856c5cb0" x1="0%" y1="0%" x2="100%" y2="0%"><stop data-v-29081953="" offset="0%" stop-color="#E90DCA" stop-opacity="1"></stop><stop data-v-29081953="" offset="100%" stop-color="#1536F1" stop-opacity="1"></stop></linearGradient></defs><g data-v-29081953="" id="2c197c34-eb27-4e95-9ecd-bde6e62f9ef3" stroke="none" fill="url(#65d7e5ce-c4fb-4a26-97d1-aa8e856c5cb0)" transform="matrix(0.7549009605528592,0,0,0.7549009605528592,9.275530329554908,111.31132289194734)"><path d="M59.3 28.2c0-5.1-4.2-9.3-9.3-9.3-5.1 0-9.3 4.2-9.3 9.3 0 5.1 4.2 9.3 9.3 9.3 5.1 0 9.3-4.2 9.3-9.3zm-14.9 0c0-3.1 2.5-5.6 5.6-5.6 3.1 0 5.6 2.5 5.6 5.6s-2.5 5.6-5.6 5.6c-3.1 0-5.6-2.5-5.6-5.6zM59.3 51.3c0-5.1-4.2-9.3-9.3-9.3-5.1 0-9.3 4.2-9.3 9.3 0 5.1 4.2 9.3 9.3 9.3 5.1 0 9.3-4.2 9.3-9.3zm-14.9 0c0-3.1 2.5-5.6 5.6-5.6 3.1 0 5.6 2.5 5.6 5.6s-2.5 5.6-5.6 5.6c-3.1-.1-5.6-2.6-5.6-5.6zM59.3 74.3c0-5.1-4.2-9.3-9.3-9.3-5.1 0-9.3 4.2-9.3 9.3 0 5.1 4.2 9.3 9.3 9.3 5.1 0 9.3-4.1 9.3-9.3zm-14.9 0c0-3.1 2.5-5.6 5.6-5.6 3.1 0 5.6 2.5 5.6 5.6 0 3.1-2.5 5.6-5.6 5.6-3.1 0-5.6-2.5-5.6-5.6z"></path></g><defs data-v-29081953=""><!----></defs><g data-v-29081953="" id="7128a18c-1647-44ee-98bc-6d5f6da3a93e" fill="#000000" transform="matrix(0.7273780314140414,0,0,0.7273780314140414,67.04843049522471,160.7698377658991)"><path d="M4.93 7.81L8.81 2.21L7.53 2.21L4.40 6.72L1.26 2.21L-0.01 2.21L3.88 7.81L3.88 11.48L4.93 11.48ZM20.55 2.10C17.74 2.10 15.85 4.21 15.85 6.85C15.85 9.48 17.74 11.59 20.55 11.59C23.37 11.59 25.26 9.48 25.26 6.85C25.26 4.21 23.37 2.10 20.55 2.10ZM20.55 10.57C18.30 10.57 16.90 8.93 16.90 6.85C16.90 4.76 18.30 3.12 20.55 3.12C22.81 3.12 24.21 4.76 24.21 6.85C24.21 8.93 22.81 10.57 20.55 10.57ZM40.66 2.21L40.66 7.52C40.66 9.67 39.23 10.57 37.76 10.57C36.29 10.57 34.87 9.67 34.87 7.52L34.87 2.21L33.82 2.21L33.82 7.49C33.82 9.95 35.45 11.59 37.76 11.59C40.08 11.59 41.71 9.94 41.71 7.49L41.71 2.21ZM51.91 7.92L55.13 7.92L57.37 11.48L58.62 11.48L56.18 7.74C57.22 7.50 58.42 6.90 58.42 5.11C58.42 3.35 57.20 2.21 55.30 2.21L50.86 2.21L50.86 11.48L51.91 11.48ZM51.91 3.21L55.17 3.21C56.49 3.21 57.37 3.93 57.37 5.11C57.37 6.55 56.11 6.93 55.12 6.93L51.91 6.93ZM78.26 2.21L77.21 2.21L77.21 11.48L78.26 11.48ZM94.11 2.21L86.59 2.21L86.59 3.22L89.82 3.22L89.82 11.48L90.87 11.48L90.87 3.22L94.11 3.22ZM116.33 2.21L112.42 2.21L112.42 11.48L116.33 11.48C118.54 11.48 120.58 9.74 120.58 6.85C120.58 3.95 118.54 2.21 116.33 2.21ZM116.28 10.49L113.47 10.49L113.47 3.21L116.28 3.21C118.26 3.21 119.53 4.86 119.53 6.85C119.53 8.83 118.26 10.49 116.28 10.49ZM136.09 3.22L136.09 2.21L129.28 2.21L129.28 11.48L136.09 11.48L136.09 10.47L130.33 10.47L130.33 7.35L135.48 7.35L135.48 6.33L130.33 6.33L130.33 3.22ZM145.84 8.18L148.96 8.18C150.93 8.18 152.15 7.03 152.15 5.19C152.15 3.37 150.93 2.21 148.96 2.21L144.79 2.21L144.79 11.48L145.84 11.48ZM148.89 3.21C150.35 3.21 151.10 3.96 151.10 5.19C151.10 6.44 150.35 7.20 148.89 7.20L145.84 7.20L145.84 3.21ZM164.25 2.21L162.93 2.21L159.00 11.48L160.16 11.48L161.29 8.79L165.89 8.79L167.02 11.48L168.18 11.48ZM161.70 7.83L163.59 3.30L165.48 7.83ZM177.41 7.92L180.63 7.92L182.87 11.48L184.11 11.48L181.68 7.74C182.71 7.50 183.92 6.90 183.92 5.11C183.92 3.35 182.70 2.21 180.80 2.21L176.36 2.21L176.36 11.48L177.41 11.48ZM177.41 3.21L180.67 3.21C181.99 3.21 182.87 3.93 182.87 5.11C182.87 6.55 181.61 6.93 180.61 6.93L177.41 6.93ZM199.30 2.21L191.79 2.21L191.79 3.22L195.02 3.22L195.02 11.48L196.07 11.48L196.07 3.22L199.30 3.22ZM215.43 2.21L212.17 6.61L208.85 2.21L207.63 2.21L207.63 11.48L208.68 11.48L208.68 3.81L212.17 8.22L215.60 3.81L215.60 11.48L216.65 11.48L216.65 2.21ZM232.74 3.22L232.74 2.21L225.92 2.21L225.92 11.48L232.74 11.48L232.74 10.47L226.97 10.47L226.97 7.35L232.12 7.35L232.12 6.33L226.97 6.33L226.97 3.22ZM248.37 2.21L248.37 10.01L242.65 2.21L241.43 2.21L241.43 11.48L242.48 11.48L242.48 3.65L248.21 11.48L249.42 11.48L249.42 2.21ZM265.27 2.21L257.75 2.21L257.75 3.22L260.99 3.22L260.99 11.48L262.04 11.48L262.04 3.22L265.27 3.22Z"></path></g></svg>