<svg data-v-29081953="" xmlns="http://www.w3.org/2000/svg" viewBox="0 0 300 300"><!----><defs data-v-29081953=""><!----></defs><rect data-v-29081953="" fill="transparent" x="0" y="0" width="300px" height="300px" class="logo-background-square"></rect><!----><defs data-v-29081953=""><linearGradient data-v-29081953="" gradientTransform="rotate(25)" id="7969ee0c-5bcb-4515-9c91-4acdd49ee2ef" x1="0%" y1="0%" x2="100%" y2="0%"><stop data-v-29081953="" offset="0%" stop-color="#E90DCA" stop-opacity="1"></stop><stop data-v-29081953="" offset="100%" stop-color="#1536F1" stop-opacity="1"></stop></linearGradient></defs><g data-v-29081953="" id="c0514dc9-c69b-4816-b8d3-fd3692b02fb3" fill="url(#7969ee0c-5bcb-4515-9c91-4acdd49ee2ef)" stroke="none" transform="matrix(4.2771602144762415,0,0,4.2771602144762415,-63.849469260447364,-63.85586516042629)"><path d="M63.979 27.467c-1.185-.684-2.563-1.031-4.094-1.031-6.113 0-14.028 5.8-17.02 10.985a13.23 13.23 0 0 0-.675 1.36c-1.491-.99-3.031-1.5-4.601-1.5-7.82 0-13.309 12.441-13.309 19.178 0 7.339 5.97 13.31 13.309 13.31a13.21 13.21 0 0 0 7.67-2.46 13.316 13.316 0 0 0 11.279 6.254c6.736 0 19.178-5.488 19.178-13.309 0-4.669-4.503-8.47-9.182-10.729 2.905-6.312 3.788-18.395-2.555-22.058zM45.464 38.921c2.479-4.296 9.464-9.485 14.421-9.485.998 0 1.871.211 2.594.629 2.04 1.178 3.237 4.251 3.286 8.431.041 3.453-.72 7.179-1.997 9.865-.039-.014-.077-.023-.115-.037a27.935 27.935 0 0 0-1.654-.528l-.199-.059a24.766 24.766 0 0 0-1.637-.39c-.102-.021-.203-.042-.305-.061-.527-.1-1.044-.18-1.547-.236-.085-.01-.168-.016-.253-.023a15.751 15.751 0 0 0-1.519-.084c-.373 0-.743.021-1.112.052-.112.009-.224.023-.336.036a12.806 12.806 0 0 0-1.137.173c-.289.058-.575.126-.859.202-.072.02-.146.035-.217.056-.352.102-.698.218-1.04.348-.088.034-.173.072-.261.108a13.467 13.467 0 0 0-1.083.494c-.241.124-.477.256-.71.394-.089.053-.178.102-.266.157-.036.022-.073.042-.108.064a28.14 28.14 0 0 0-.373-.954c-.025-.061-.046-.122-.071-.182a27.484 27.484 0 0 0-.611-1.362c-.06-.125-.122-.246-.184-.37a28.412 28.412 0 0 0-.724-1.363c-.2-.35-.405-.69-.617-1.022-.043-.068-.084-.14-.128-.207a22.54 22.54 0 0 0-.788-1.13c-.072-.097-.147-.188-.22-.284a19.045 19.045 0 0 0-.894-1.078c-.066-.073-.13-.153-.196-.225.222-.675.509-1.321.86-1.929zM37.591 66.77c-5.684 0-10.309-4.625-10.309-10.31 0-6.085 4.993-16.178 10.309-16.178 1.4 0 2.846.702 4.296 2.085.268.255.532.536.793.833.082.093.16.198.241.295.177.213.354.426.527.657.094.126.185.262.278.393.154.217.307.434.456.663.096.148.188.303.282.456.139.227.278.454.412.689.092.164.182.332.271.5.127.237.252.476.373.72.087.176.17.355.254.534a26.31 26.31 0 0 1 .561 1.304 25.133 25.133 0 0 1 .491 1.341c.035.106.066.212.1.318-.034.036-.062.078-.095.113-.361.387-.706.788-1.02 1.215a13.2 13.2 0 0 0-2.58 7.856c0 .422.025.841.065 1.257.012.131.032.26.048.39a13.09 13.09 0 0 0 .226 1.295c.064.283.141.564.224.843.038.127.072.254.113.38.016.047.026.095.042.142a10.226 10.226 0 0 1-6.358 2.209zm35.127-6.515c0 5.315-10.092 10.309-16.178 10.309a10.32 10.32 0 0 1-10.309-10.309c0-2.195.691-4.298 1.998-6.081.417-.567.89-1.091 1.409-1.561a10.28 10.28 0 0 1 6.902-2.669 14.6 14.6 0 0 1 2.554.25c1.52.272 3.172.761 4.791 1.427h.001c4.074 1.675 8.832 4.941 8.832 8.634z"></path><path d="M62.431 53.725A1.5 1.5 0 0 0 61.29 56.5c4.392 1.805 6.213 4.103 6.232 4.755a1.5 1.5 0 1 0 3 0c0-2.515-3.251-5.541-8.091-7.53z"></path></g><!----></svg>